<?xml version="1.0" encoding="UTF-8" standalone="no"?>
<!DOCTYPE svg PUBLIC "-//W3C//DTD SVG 1.1//EN"
 "http://www.w3.org/Graphics/SVG/1.1/DTD/svg11.dtd">
<!-- Generated by graphviz version 2.47.3 (20210619.1520)
 -->
<!-- Title: dependencies Pages: 1 -->
<svg width="1971pt" height="247pt"
 viewBox="0.00 0.00 1971.00 246.80" xmlns="http://www.w3.org/2000/svg" xmlns:xlink="http://www.w3.org/1999/xlink">
<g id="graph0" class="graph" transform="scale(1 1) rotate(0) translate(4 242.8)">
<title>dependencies</title>
<polygon fill="white" stroke="transparent" points="-4,4 -4,-242.8 1967,-242.8 1967,4 -4,4"/>
<text text-anchor="middle" x="981.5" y="-8.2" font-family="sans-serif" font-size="14.00">dependencies</text>
<g id="clust1" class="cluster">
<title>cluster_AppModule</title>
<polygon fill="none" stroke="black" stroke-dasharray="1,5" points="8,-32.8 8,-230.8 1955,-230.8 1955,-32.8 8,-32.8"/>
</g>
<g id="clust15" class="cluster">
<title>cluster_AppModule_imports</title>
<polygon fill="none" stroke="black" points="1803,-40.8 1803,-92.8 1947,-92.8 1947,-40.8 1803,-40.8"/>
</g>
<g id="clust17" class="cluster">
<title>cluster_AppModule_bootstrap</title>
<polygon fill="none" stroke="black" points="932,-170.8 932,-222.8 1056,-222.8 1056,-170.8 932,-170.8"/>
</g>
<g id="clust2" class="cluster">
<title>cluster_AppModule_declarations</title>
<polygon fill="none" stroke="black" points="16,-40.8 16,-92.8 1795,-92.8 1795,-40.8 16,-40.8"/>
</g>
<!-- AppComponent -->
<g id="node1" class="node">
<title>AppComponent</title>
<polygon fill="#ffffb3" stroke="black" points="1786.94,-84.8 1681.06,-84.8 1681.06,-48.8 1786.94,-48.8 1786.94,-84.8"/>
<text text-anchor="middle" x="1734" y="-62.6" font-family="Times,serif" font-size="14.00">AppComponent</text>
</g>
<!-- AppModule -->
<g id="node13" class="node">
<title>AppModule</title>
<polygon fill="#8dd3c7" stroke="black" points="1035.66,-149.8 1032.66,-153.8 1011.66,-153.8 1008.66,-149.8 952.34,-149.8 952.34,-113.8 1035.66,-113.8 1035.66,-149.8"/>
<text text-anchor="middle" x="994" y="-127.6" font-family="Times,serif" font-size="14.00">AppModule</text>
</g>
<!-- AppComponent&#45;&gt;AppModule -->
<g id="edge1" class="edge">
<title>AppComponent&#45;&gt;AppModule</title>
<path fill="none" stroke="black" d="M1734,-84.84C1734,-106.46 1734,-139.8 1734,-139.8 1734,-139.8 1045.91,-139.8 1045.91,-139.8"/>
<polygon fill="black" stroke="black" points="1045.91,-136.3 1035.91,-139.8 1045.91,-143.3 1045.91,-136.3"/>
</g>
<!-- BasketballComponent -->
<g id="node2" class="node">
<title>BasketballComponent</title>
<polygon fill="#ffffb3" stroke="black" points="1663.43,-84.8 1522.57,-84.8 1522.57,-48.8 1663.43,-48.8 1663.43,-84.8"/>
<text text-anchor="middle" x="1593" y="-62.6" font-family="Times,serif" font-size="14.00">BasketballComponent</text>
</g>
<!-- BasketballComponent&#45;&gt;AppModule -->
<g id="edge2" class="edge">
<title>BasketballComponent&#45;&gt;AppModule</title>
<path fill="none" stroke="black" d="M1593,-85.02C1593,-105.17 1593,-134.8 1593,-134.8 1593,-134.8 1046.12,-134.8 1046.12,-134.8"/>
<polygon fill="black" stroke="black" points="1046.12,-131.3 1036.12,-134.8 1046.12,-138.3 1046.12,-131.3"/>
</g>
<!-- DataPrivacyComponent -->
<g id="node3" class="node">
<title>DataPrivacyComponent</title>
<polygon fill="#ffffb3" stroke="black" points="1505.02,-84.8 1354.98,-84.8 1354.98,-48.8 1505.02,-48.8 1505.02,-84.8"/>
<text text-anchor="middle" x="1430" y="-62.6" font-family="Times,serif" font-size="14.00">DataPrivacyComponent</text>
</g>
<!-- DataPrivacyComponent&#45;&gt;AppModule -->
<g id="edge3" class="edge">
<title>DataPrivacyComponent&#45;&gt;AppModule</title>
<path fill="none" stroke="black" d="M1430,-85.02C1430,-103.63 1430,-129.8 1430,-129.8 1430,-129.8 1045.81,-129.8 1045.81,-129.8"/>
<polygon fill="black" stroke="black" points="1045.81,-126.3 1035.81,-129.8 1045.81,-133.3 1045.81,-126.3"/>
</g>
<!-- FixturesComponent -->
<g id="node4" class="node">
<title>FixturesComponent</title>
<polygon fill="#ffffb3" stroke="black" points="1336.72,-84.8 1209.28,-84.8 1209.28,-48.8 1336.72,-48.8 1336.72,-84.8"/>
<text text-anchor="middle" x="1273" y="-62.6" font-family="Times,serif" font-size="14.00">FixturesComponent</text>
</g>
<!-- FixturesComponent&#45;&gt;AppModule -->
<g id="edge4" class="edge">
<title>FixturesComponent&#45;&gt;AppModule</title>
<path fill="none" stroke="black" d="M1273,-84.83C1273,-101.86 1273,-124.8 1273,-124.8 1273,-124.8 1045.77,-124.8 1045.77,-124.8"/>
<polygon fill="black" stroke="black" points="1045.77,-121.3 1035.77,-124.8 1045.77,-128.3 1045.77,-121.3"/>
</g>
<!-- FooterComponent -->
<g id="node5" class="node">
<title>FooterComponent</title>
<polygon fill="#ffffb3" stroke="black" points="1190.88,-84.8 1073.12,-84.8 1073.12,-48.8 1190.88,-48.8 1190.88,-84.8"/>
<text text-anchor="middle" x="1132" y="-62.6" font-family="Times,serif" font-size="14.00">FooterComponent</text>
</g>
<!-- FooterComponent&#45;&gt;AppModule -->
<g id="edge5" class="edge">
<title>FooterComponent&#45;&gt;AppModule</title>
<path fill="none" stroke="black" d="M1132,-85.04C1132,-100.37 1132,-119.8 1132,-119.8 1132,-119.8 1045.78,-119.8 1045.78,-119.8"/>
<polygon fill="black" stroke="black" points="1045.78,-116.3 1035.78,-119.8 1045.78,-123.3 1045.78,-116.3"/>
</g>
<!-- HeaderComponent -->
<g id="node6" class="node">
<title>HeaderComponent</title>
<polygon fill="#ffffb3" stroke="black" points="1054.74,-84.8 933.26,-84.8 933.26,-48.8 1054.74,-48.8 1054.74,-84.8"/>
<text text-anchor="middle" x="994" y="-62.6" font-family="Times,serif" font-size="14.00">HeaderComponent</text>
</g>
<!-- HeaderComponent&#45;&gt;AppModule -->
<g id="edge6" class="edge">
<title>HeaderComponent&#45;&gt;AppModule</title>
<path fill="none" stroke="black" d="M994,-84.91C994,-84.91 994,-103.79 994,-103.79"/>
<polygon fill="black" stroke="black" points="990.5,-103.79 994,-113.79 997.5,-103.79 990.5,-103.79"/>
</g>
<!-- LeagueComponent -->
<g id="node7" class="node">
<title>LeagueComponent</title>
<polygon fill="#ffffb3" stroke="black" points="915.03,-84.8 792.97,-84.8 792.97,-48.8 915.03,-48.8 915.03,-84.8"/>
<text text-anchor="middle" x="854" y="-62.6" font-family="Times,serif" font-size="14.00">LeagueComponent</text>
</g>
<!-- LeagueComponent&#45;&gt;AppModule -->
<g id="edge7" class="edge">
<title>LeagueComponent&#45;&gt;AppModule</title>
<path fill="none" stroke="black" d="M854,-85.04C854,-100.37 854,-119.8 854,-119.8 854,-119.8 942,-119.8 942,-119.8"/>
<polygon fill="black" stroke="black" points="942,-123.3 952,-119.8 942,-116.3 942,-123.3"/>
</g>
<!-- LegalNoticeComponent -->
<g id="node8" class="node">
<title>LegalNoticeComponent</title>
<polygon fill="#ffffb3" stroke="black" points="774.02,-84.8 623.98,-84.8 623.98,-48.8 774.02,-48.8 774.02,-84.8"/>
<text text-anchor="middle" x="699" y="-62.6" font-family="Times,serif" font-size="14.00">LegalNoticeComponent</text>
</g>
<!-- LegalNoticeComponent&#45;&gt;AppModule -->
<g id="edge8" class="edge">
<title>LegalNoticeComponent&#45;&gt;AppModule</title>
<path fill="none" stroke="black" d="M699,-84.83C699,-101.86 699,-124.8 699,-124.8 699,-124.8 942.05,-124.8 942.05,-124.8"/>
<polygon fill="black" stroke="black" points="942.05,-128.3 952.05,-124.8 942.05,-121.3 942.05,-128.3"/>
</g>
<!-- MatchDetailsComponent -->
<g id="node9" class="node">
<title>MatchDetailsComponent</title>
<polygon fill="#ffffb3" stroke="black" points="605.25,-84.8 448.75,-84.8 448.75,-48.8 605.25,-48.8 605.25,-84.8"/>
<text text-anchor="middle" x="527" y="-62.6" font-family="Times,serif" font-size="14.00">MatchDetailsComponent</text>
</g>
<!-- MatchDetailsComponent&#45;&gt;AppModule -->
<g id="edge9" class="edge">
<title>MatchDetailsComponent&#45;&gt;AppModule</title>
<path fill="none" stroke="black" d="M527,-85.02C527,-103.63 527,-129.8 527,-129.8 527,-129.8 942.15,-129.8 942.15,-129.8"/>
<polygon fill="black" stroke="black" points="942.15,-133.3 952.15,-129.8 942.15,-126.3 942.15,-133.3"/>
</g>
<!-- SoccerComponent -->
<g id="node10" class="node">
<title>SoccerComponent</title>
<polygon fill="#ffffb3" stroke="black" points="430.92,-84.8 311.08,-84.8 311.08,-48.8 430.92,-48.8 430.92,-84.8"/>
<text text-anchor="middle" x="371" y="-62.6" font-family="Times,serif" font-size="14.00">SoccerComponent</text>
</g>
<!-- SoccerComponent&#45;&gt;AppModule -->
<g id="edge10" class="edge">
<title>SoccerComponent&#45;&gt;AppModule</title>
<path fill="none" stroke="black" d="M371,-85.02C371,-105.17 371,-134.8 371,-134.8 371,-134.8 942.16,-134.8 942.16,-134.8"/>
<polygon fill="black" stroke="black" points="942.16,-138.3 952.16,-134.8 942.16,-131.3 942.16,-138.3"/>
</g>
<!-- SportsComponent -->
<g id="node11" class="node">
<title>SportsComponent</title>
<polygon fill="#ffffb3" stroke="black" points="293.61,-84.8 176.39,-84.8 176.39,-48.8 293.61,-48.8 293.61,-84.8"/>
<text text-anchor="middle" x="235" y="-62.6" font-family="Times,serif" font-size="14.00">SportsComponent</text>
</g>
<!-- SportsComponent&#45;&gt;AppModule -->
<g id="edge11" class="edge">
<title>SportsComponent&#45;&gt;AppModule</title>
<path fill="none" stroke="black" d="M235,-84.84C235,-106.46 235,-139.8 235,-139.8 235,-139.8 942.11,-139.8 942.11,-139.8"/>
<polygon fill="black" stroke="black" points="942.11,-143.3 952.11,-139.8 942.11,-136.3 942.11,-143.3"/>
</g>
<!-- StartPageComponent -->
<g id="node12" class="node">
<title>StartPageComponent</title>
<polygon fill="#ffffb3" stroke="black" points="158.48,-84.8 23.52,-84.8 23.52,-48.8 158.48,-48.8 158.48,-84.8"/>
<text text-anchor="middle" x="91" y="-62.6" font-family="Times,serif" font-size="14.00">StartPageComponent</text>
</g>
<!-- StartPageComponent&#45;&gt;AppModule -->
<g id="edge12" class="edge">
<title>StartPageComponent&#45;&gt;AppModule</title>
<path fill="none" stroke="black" d="M91,-84.89C91,-107.93 91,-144.8 91,-144.8 91,-144.8 942.26,-144.8 942.26,-144.8"/>
<polygon fill="black" stroke="black" points="942.26,-148.3 952.26,-144.8 942.26,-141.3 942.26,-148.3"/>
</g>
<!-- AppComponent  -->
<g id="node15" class="node">
<title>AppComponent </title>
<polygon fill="#80b1d3" stroke="black" points="1048.44,-214.8 939.56,-214.8 939.56,-178.8 1048.44,-178.8 1048.44,-214.8"/>
<text text-anchor="middle" x="994" y="-192.6" font-family="Times,serif" font-size="14.00">AppComponent </text>
</g>
<!-- AppModule&#45;&gt;AppComponent  -->
<g id="edge14" class="edge">
<title>AppModule&#45;&gt;AppComponent </title>
<path fill="none" stroke="black" stroke-dasharray="1,5" d="M994,-149.91C994,-149.91 994,-168.79 994,-168.79"/>
<polygon fill="black" stroke="black" points="990.5,-168.79 994,-178.79 997.5,-168.79 990.5,-168.79"/>
</g>
<!-- AppRoutingModule -->
<g id="node14" class="node">
<title>AppRoutingModule</title>
<polygon fill="#8dd3c7" stroke="black" points="1939.27,-84.8 1936.27,-88.8 1915.27,-88.8 1912.27,-84.8 1810.73,-84.8 1810.73,-48.8 1939.27,-48.8 1939.27,-84.8"/>
<text text-anchor="middle" x="1875" y="-62.6" font-family="Times,serif" font-size="14.00">AppRoutingModule</text>
</g>
<!-- AppRoutingModule&#45;&gt;AppModule -->
<g id="edge13" class="edge">
<title>AppRoutingModule&#45;&gt;AppModule</title>
<path fill="none" stroke="black" d="M1875,-84.89C1875,-107.93 1875,-144.8 1875,-144.8 1875,-144.8 1045.9,-144.8 1045.9,-144.8"/>
<polygon fill="black" stroke="black" points="1045.9,-141.3 1035.9,-144.8 1045.9,-148.3 1045.9,-141.3"/>
</g>
</g>
</svg>
